# 3ds Max Wavefront OBJ Exporter v0.97b - (c)2007 guruware
# File Created: 28.12.2017 11:08:01

mtllib cilindro.mtl

#
# object Cylinder001
#

v  0.0335 0.0000 0.0000
v  0.0237 0.0000 -0.0237
v  0.0692 0.0000 -0.0692
v  0.0979 0.0000 -0.0000
v  -0.0000 0.0000 -0.0335
v  -0.0000 0.0000 -0.0979
v  -0.0237 0.0000 -0.0237
v  -0.0692 0.0000 -0.0692
v  -0.0335 0.0000 0.0000
v  -0.0979 0.0000 0.0000
v  -0.0237 0.0000 0.0237
v  -0.0692 0.0000 0.0692
v  0.0000 0.0000 0.0335
v  0.0000 0.0000 0.0979
v  0.0237 0.0000 0.0237
v  0.0692 0.0000 0.0692
v  0.0692 0.0027 -0.0692
v  0.0979 0.0027 -0.0000
v  -0.0000 0.0027 -0.0979
v  -0.0692 0.0027 -0.0692
v  -0.0979 0.0027 0.0000
v  -0.0692 0.0027 0.0692
v  0.0000 0.0027 0.0979
v  0.0692 0.0027 0.0692
v  0.0979 0.0197 -0.0000
v  0.0692 0.0197 -0.0692
v  0.0237 0.0197 -0.0237
v  0.0335 0.0197 0.0000
v  -0.0000 0.0197 -0.0979
v  -0.0000 0.0197 -0.0335
v  -0.0692 0.0197 -0.0692
v  -0.0237 0.0197 -0.0237
v  -0.0979 0.0197 0.0000
v  -0.0335 0.0197 0.0000
v  -0.0692 0.0197 0.0692
v  -0.0237 0.0197 0.0237
v  0.0000 0.0197 0.0979
v  0.0000 0.0197 0.0335
v  0.0692 0.0197 0.0692
v  0.0237 0.0197 0.0237
v  0.0335 0.0013 0.0000
v  0.0237 0.0013 -0.0237
v  0.0237 0.0013 0.0237
v  0.0000 0.0013 0.0335
v  -0.0237 0.0013 0.0237
v  -0.0335 0.0013 0.0000
v  -0.0237 0.0013 -0.0237
v  -0.0000 0.0013 -0.0335
v  0.0335 0.0176 0.0000
v  0.0237 0.0176 -0.0237
v  0.0237 0.0176 0.0237
v  0.0000 0.0176 0.0335
v  -0.0237 0.0176 0.0237
v  -0.0335 0.0176 0.0000
v  -0.0237 0.0176 -0.0237
v  -0.0000 0.0176 -0.0335
v  0.0692 0.0168 -0.0692
v  0.0979 0.0168 -0.0000
v  -0.0000 0.0168 -0.0979
v  -0.0692 0.0168 -0.0692
v  -0.0979 0.0168 0.0000
v  -0.0692 0.0168 0.0692
v  0.0000 0.0168 0.0979
v  0.0692 0.0168 0.0692
# 64 vertices

vn -0.5944 -0.8042 -0.0000
vn -0.4203 -0.8042 0.4203
vn 0.5490 -0.6303 -0.5490
vn 0.7763 -0.6303 -0.0000
vn 0.0000 -0.8042 0.5944
vn -0.0000 -0.6303 -0.7764
vn 0.4203 -0.8042 0.4203
vn -0.5490 -0.6303 -0.5490
vn 0.5944 -0.8042 -0.0000
vn -0.7764 -0.6303 0.0000
vn 0.4203 -0.8042 -0.4203
vn -0.5490 -0.6303 0.5490
vn 0.0000 -0.8042 -0.5944
vn -0.0000 -0.6303 0.7764
vn -0.4203 -0.8042 -0.4203
vn 0.5490 -0.6302 0.5490
vn 0.7071 0.0000 -0.7071
vn 1.0000 0.0000 -0.0000
vn -0.0000 0.0000 -1.0000
vn -0.7071 0.0000 -0.7071
vn -1.0000 0.0000 0.0000
vn -0.7071 0.0000 0.7071
vn 0.0000 0.0000 1.0000
vn 0.7071 0.0000 0.7071
vn 0.7763 0.6303 -0.0000
vn 0.5490 0.6303 -0.5490
vn -0.4203 0.8042 0.4203
vn -0.5944 0.8042 -0.0000
vn -0.0000 0.6303 -0.7764
vn 0.0000 0.8042 0.5944
vn -0.5490 0.6303 -0.5490
vn 0.4203 0.8042 0.4203
vn -0.7764 0.6303 0.0000
vn 0.5944 0.8042 -0.0000
vn -0.5490 0.6303 0.5490
vn 0.4203 0.8042 -0.4203
vn -0.0000 0.6303 0.7764
vn 0.0000 0.8042 -0.5944
vn 0.5489 0.6303 0.5490
vn -0.4203 0.8042 -0.4203
vn -1.0000 0.0000 -0.0000
vn -0.7071 -0.0000 -0.7071
vn 0.0000 0.0000 -1.0000
vn 0.7071 -0.0000 -0.7071
vn -0.0000 -0.0000 -1.0000
vn -1.0000 -0.0000 0.0000
vn -0.0000 -0.0000 1.0000
vn 0.7071 -0.0000 0.7071
# 48 vertex normals

vt 0.7500 0.0000 0.5000
vt 0.8750 0.0000 0.5000
vt 0.8750 0.0000 1.0000
vt 0.7500 0.0000 1.0000
vt -0.1250 0.0000 0.5000
vt 0.0000 0.0000 0.5000
vt 0.0000 0.0000 1.0000
vt -0.1250 0.0000 1.0000
vt 0.1250 0.0000 0.5000
vt 0.1250 0.0000 1.0000
vt 0.2500 0.0000 0.5000
vt 0.2500 0.0000 1.0000
vt 0.3750 0.0000 0.5000
vt 0.3750 0.0000 1.0000
vt 0.5000 0.0000 0.5000
vt 0.5000 0.0000 1.0000
vt 0.6250 0.0000 0.5000
vt 0.6250 0.0000 1.0000
vt 0.8750 0.1364 1.0000
vt 0.7500 0.1364 1.0000
vt 0.0000 0.1364 1.0000
vt -0.1250 0.1364 1.0000
vt 0.1250 0.1364 1.0000
vt 0.2500 0.1364 1.0000
vt 0.3750 0.1364 1.0000
vt 0.5000 0.1364 1.0000
vt 0.6250 0.1364 1.0000
vt 0.7500 1.0000 1.0000
vt 0.8750 1.0000 1.0000
vt 0.8750 1.0000 0.5000
vt 0.7500 1.0000 0.5000
vt -0.1250 1.0000 1.0000
vt 0.0000 1.0000 1.0000
vt 0.0000 1.0000 0.5000
vt -0.1250 1.0000 0.5000
vt 0.1250 1.0000 1.0000
vt 0.1250 1.0000 0.5000
vt 0.2500 1.0000 1.0000
vt 0.2500 1.0000 0.5000
vt 0.3750 1.0000 1.0000
vt 0.3750 1.0000 0.5000
vt 0.5000 1.0000 1.0000
vt 0.5000 1.0000 0.5000
vt 0.6250 1.0000 1.0000
vt 0.6250 1.0000 0.5000
vt 0.7500 0.0682 0.5000
vt 0.8750 0.0682 0.5000
vt 0.6250 0.0682 0.5000
vt 0.5000 0.0682 0.5000
vt 0.3750 0.0682 0.5000
vt 0.2500 0.0682 0.5000
vt 0.1250 0.0682 0.5000
vt 0.0000 0.0682 0.5000
vt -0.1250 0.0682 0.5000
vt 0.7500 0.8930 0.5000
vt 0.8750 0.8930 0.5000
vt 0.6250 0.8930 0.5000
vt 0.5000 0.8930 0.5000
vt 0.3750 0.8930 0.5000
vt 0.2500 0.8930 0.5000
vt 0.1250 0.8930 0.5000
vt 0.0000 0.8930 0.5000
vt -0.1250 0.8930 0.5000
vt 0.8750 0.8558 1.0000
vt 0.7500 0.8558 1.0000
vt 0.0000 0.8558 1.0000
vt -0.1250 0.8558 1.0000
vt 0.1250 0.8558 1.0000
vt 0.2500 0.8558 1.0000
vt 0.3750 0.8558 1.0000
vt 0.5000 0.8558 1.0000
vt 0.6250 0.8558 1.0000
# 72 texture coords

o Cylinder001
g Cylinder001
usemtl wire_085028177
s 1
f 1/1/1 2/2/2 3/3/3 4/4/4 
f 2/5/2 5/6/5 6/7/6 3/8/3 
f 5/6/5 7/9/7 8/10/8 6/7/6 
f 7/9/7 9/11/9 10/12/10 8/10/8 
f 9/11/9 11/13/11 12/14/12 10/12/10 
f 11/13/11 13/15/13 14/16/14 12/14/12 
f 13/15/13 15/17/15 16/18/16 14/16/14 
f 15/17/15 1/1/1 4/4/4 16/18/16 
s 8
f 4/4/4 3/3/3 17/19/17 18/20/18 
f 3/8/3 6/7/6 19/21/19 17/22/17 
f 6/7/6 8/10/8 20/23/20 19/21/19 
f 8/10/8 10/12/10 21/24/21 20/23/20 
f 10/12/10 12/14/12 22/25/22 21/24/21 
f 12/14/12 14/16/14 23/26/23 22/25/22 
f 14/16/14 16/18/16 24/27/24 23/26/23 
f 16/18/16 4/4/4 18/20/18 24/27/24 
s 1
f 25/28/25 26/29/26 27/30/27 28/31/28 
f 26/32/26 29/33/29 30/34/30 27/35/27 
f 29/33/29 31/36/31 32/37/32 30/34/30 
f 31/36/31 33/38/33 34/39/34 32/37/32 
f 33/38/33 35/40/35 36/41/36 34/39/34 
f 35/40/35 37/42/37 38/43/38 36/41/36 
f 37/42/37 39/44/39 40/45/40 38/43/38 
f 39/44/39 25/28/25 28/31/28 40/45/40 
s 2
f 2/2/2 1/1/1 41/46/41 42/47/22 
f 1/1/1 15/17/15 43/48/42 41/46/41 
s 4
f 15/17/15 13/15/13 44/49/43 43/48/42 
f 13/15/13 11/13/11 45/50/44 44/49/43 
f 11/13/11 9/11/9 46/51/18 45/50/44 
s 2
f 9/11/9 7/9/7 47/52/24 46/51/18 
s 10
f 7/9/7 5/6/5 48/53/23 47/52/24 
s 8
f 5/6/5 2/5/2 42/54/22 48/53/23 
s 2
f 49/55/41 28/31/28 27/30/27 50/56/22 
f 51/57/20 40/45/40 28/31/28 49/55/41 
s 4
f 52/58/43 38/43/38 40/45/40 51/57/20 
f 53/59/17 36/41/36 38/43/38 52/58/43 
f 54/60/18 34/39/34 36/41/36 53/59/17 
s 2
f 55/61/24 32/37/32 34/39/34 54/60/18 
s 10
f 56/62/23 30/34/30 32/37/32 55/61/24 
s 8
f 50/63/22 27/35/27 30/34/30 56/62/23 
s 2
f 41/46/41 49/55/41 50/56/22 42/47/22 
f 43/48/42 51/57/20 49/55/41 41/46/41 
s 4
f 44/49/43 52/58/43 51/57/20 43/48/42 
f 45/50/44 53/59/17 52/58/43 44/49/43 
f 46/51/18 54/60/18 53/59/17 45/50/44 
s 2
f 47/52/24 55/61/24 54/60/18 46/51/18 
s 10
f 48/53/23 56/62/23 55/61/24 47/52/24 
s 8
f 42/54/22 50/63/22 56/62/23 48/53/23 
f 57/64/17 26/29/26 25/28/25 58/65/18 
f 59/66/45 29/33/29 26/32/26 57/67/17 
f 60/68/20 31/36/31 29/33/29 59/66/45 
f 61/69/46 33/38/33 31/36/31 60/68/20 
f 62/70/22 35/40/35 33/38/33 61/69/46 
f 63/71/47 37/42/37 35/40/35 62/70/22 
f 64/72/48 39/44/39 37/42/37 63/71/47 
f 58/65/18 25/28/25 39/44/39 64/72/48 
f 17/19/17 57/64/17 58/65/18 18/20/18 
f 19/21/19 59/66/45 57/67/17 17/22/17 
f 20/23/20 60/68/20 59/66/45 19/21/19 
f 21/24/21 61/69/46 60/68/20 20/23/20 
f 22/25/22 62/70/22 61/69/46 21/24/21 
f 23/26/23 63/71/47 62/70/22 22/25/22 
f 24/27/24 64/72/48 63/71/47 23/26/23 
f 18/20/18 58/65/18 64/72/48 24/27/24 
# 64 polygons

