# 3ds Max Wavefront OBJ Exporter v0.97b - (c)2007 guruware
# File Created: 28.12.2017 13:48:56

mtllib elemento sotto ante.mtl

#
# object el_sotto_le_ante
#

v  0.0000 0.2362 -0.0000
v  0.2362 0.2362 -0.0000
v  0.2362 0.2362 -0.7480
v  0.0000 0.2362 -0.7480
v  0.3937 0.0000 -0.0000
v  0.3937 0.0000 -0.7480
v  0.3937 0.2362 -0.7480
v  0.3937 0.2362 -0.0000
v  0.3466 0.0000 -1.3164
v  0.2362 0.0000 -1.3780
v  0.2362 0.2362 -1.3780
v  0.3466 0.2362 -1.3164
v  0.3937 0.2362 -0.9843
v  0.2362 0.2362 -0.9843
v  0.3937 0.0000 -0.9843
v  0.3937 0.2362 -1.2205
v  0.2362 0.2362 -1.2205
v  0.3937 0.0000 -1.2205
v  0.0000 0.0000 -1.3780
v  0.0000 0.2362 -1.3780
v  0.1392 0.2362 -0.8451
v  0.0000 0.2362 -0.7874
v  0.0000 0.2362 -1.2205
v  0.0000 0.2362 -1.1811
v  0.1392 0.2362 -1.1234
v  0.1969 0.2362 -0.9843
v  0.1969 0.8268 -0.9843
v  0.1392 0.8268 -1.1234
v  0.0000 0.8268 -1.1811
v  0.0000 0.8268 -0.9842
v  0.0000 0.8268 -0.7874
v  0.1392 0.8268 -0.8451
v  -0.2362 0.2362 -0.7480
v  -0.2362 0.2362 -0.0000
v  -0.3937 0.0000 -0.0000
v  -0.3937 0.2362 -0.0000
v  -0.3937 0.2362 -0.7480
v  -0.3937 0.0000 -0.7480
v  -0.3466 0.0000 -1.3164
v  -0.3466 0.2362 -1.3164
v  -0.2362 0.2362 -1.3780
v  -0.2362 0.0000 -1.3780
v  -0.2362 0.2362 -0.9843
v  -0.3937 0.2362 -0.9843
v  -0.3937 0.0000 -0.9843
v  -0.2362 0.2362 -1.2205
v  -0.3937 0.2362 -1.2205
v  -0.3937 0.0000 -1.2205
v  -0.1392 0.2362 -0.8451
v  -0.1392 0.2362 -1.1234
v  -0.1969 0.2362 -0.9843
v  -0.1969 0.8268 -0.9843
v  -0.1392 0.8268 -1.1234
v  -0.1392 0.8268 -0.8451
v  0.0000 0.2362 0.7480
v  0.2362 0.2362 0.7480
v  0.3937 0.2362 0.7480
v  0.3937 0.0000 0.7480
v  0.3466 0.0000 1.3164
v  0.3466 0.2362 1.3164
v  0.2362 0.2362 1.3780
v  0.2362 0.0000 1.3780
v  0.2362 0.2362 0.9843
v  0.3937 0.2362 0.9843
v  0.3937 0.0000 0.9843
v  0.2362 0.2362 1.2205
v  0.3937 0.2362 1.2205
v  0.3937 0.0000 1.2205
v  0.0000 0.2362 1.3780
v  0.0000 0.0000 1.3780
v  0.1392 0.2362 0.8451
v  0.0000 0.2362 0.7874
v  0.1392 0.2362 1.1234
v  0.0000 0.2362 1.1811
v  0.0000 0.2362 1.2205
v  0.1969 0.2362 0.9843
v  0.1969 0.8268 0.9843
v  0.0000 0.8268 0.9842
v  0.0000 0.8268 1.1811
v  0.1392 0.8268 1.1234
v  0.1392 0.8268 0.8451
v  0.0000 0.8268 0.7874
v  -0.2362 0.2362 0.7480
v  -0.3937 0.0000 0.7480
v  -0.3937 0.2362 0.7480
v  -0.3466 0.0000 1.3164
v  -0.2362 0.0000 1.3780
v  -0.2362 0.2362 1.3780
v  -0.3466 0.2362 1.3164
v  -0.3937 0.2362 0.9843
v  -0.2362 0.2362 0.9843
v  -0.3937 0.0000 0.9843
v  -0.3937 0.2362 1.2205
v  -0.2362 0.2362 1.2205
v  -0.3937 0.0000 1.2205
v  -0.1392 0.2362 0.8451
v  -0.1392 0.2362 1.1234
v  -0.1969 0.2362 0.9843
v  -0.1969 0.8268 0.9843
v  -0.1392 0.8268 1.1234
v  -0.1392 0.8268 0.8451
v  0.1571 -0.1091 -1.2594
v  -0.0000 -0.1091 -1.2594
v  0.2619 -0.1091 -0.0000
v  0.2619 -0.1091 -0.6837
v  0.2619 -0.1091 -0.8996
v  0.2619 -0.1091 -1.1155
v  -0.2619 -0.1091 -0.6837
v  -0.2619 -0.1091 -0.0000
v  -0.2619 -0.1091 -0.8996
v  -0.2619 -0.1091 -1.1155
v  -0.1571 -0.1091 -1.2594
v  0.2619 -0.1091 0.6837
v  0.2619 -0.1091 0.8996
v  0.2619 -0.1091 1.1155
v  -0.0000 -0.1091 1.2594
v  0.1571 -0.1091 1.2594
v  -0.2619 -0.1091 0.6837
v  -0.2619 -0.1091 0.8996
v  -0.2619 -0.1091 1.1155
v  -0.1571 -0.1091 1.2594
v  0.1571 -0.1091 0.8996
v  0.1571 -0.1091 0.6837
v  -0.2305 -0.1091 1.2032
v  0.2305 -0.1091 1.2032
v  0.2305 -0.1091 -1.2032
v  -0.2305 -0.1091 -1.2032
v  0.1571 -0.1091 -1.1155
v  0.1571 -0.1091 -0.0000
v  0.1571 -0.1091 -0.6837
v  0.1571 -0.1091 -0.8996
v  0.1571 -0.1091 1.1155
v  -0.1571 -0.1091 1.1155
v  -0.1571 -0.1091 0.8996
v  -0.1571 -0.1091 0.6837
v  -0.1571 -0.1091 -0.0000
v  -0.1571 -0.1091 -0.6837
v  -0.1571 -0.1091 -0.8996
v  -0.1571 -0.1091 -1.1155
v  0.0000 -0.1091 -1.1155
v  0.0000 -0.1091 -0.8996
v  0.0000 -0.1091 -0.6837
v  0.0000 -0.1091 -0.0000
v  0.0000 -0.1091 0.6837
v  0.0000 -0.1091 0.8996
v  0.0000 -0.1091 1.1155
# 146 vertices

vn 0.0000 1.0000 -0.0000
vn 0.9049 -0.4256 -0.0000
vn 0.7071 0.7071 -0.0000
vn 0.6523 -0.4363 -0.6198
vn 0.2408 -0.4080 -0.8806
vn 0.1901 0.6546 -0.7316
vn 0.5539 0.6457 -0.5257
vn 0.7322 0.6596 -0.1699
vn 0.8734 -0.4359 -0.2170
vn 0.0000 -0.4017 -0.9158
vn 0.0000 0.7071 -0.7071
vn 0.4203 0.8042 0.4203
vn 0.0000 0.8042 0.5944
vn 0.0000 0.8042 -0.5944
vn 0.4203 0.8042 -0.4203
vn 0.5944 0.8042 0.0000
vn 0.7764 0.6303 0.0000
vn 0.5490 0.6303 -0.5490
vn 0.0000 0.6303 -0.7764
vn 0.0000 0.6303 0.7764
vn 0.5490 0.6303 0.5490
vn -0.9049 -0.4256 -0.0000
vn -0.7071 0.7071 -0.0000
vn -0.6523 -0.4363 -0.6198
vn -0.5539 0.6457 -0.5257
vn -0.1901 0.6546 -0.7316
vn -0.2408 -0.4080 -0.8806
vn -0.7322 0.6596 -0.1699
vn -0.8734 -0.4359 -0.2170
vn -0.4203 0.8042 0.4203
vn -0.4203 0.8042 -0.4203
vn -0.5944 0.8042 0.0000
vn -0.7764 0.6303 0.0000
vn -0.5490 0.6303 -0.5490
vn -0.5490 0.6303 0.5490
vn 0.6523 -0.4363 0.6198
vn 0.5539 0.6457 0.5257
vn 0.1901 0.6546 0.7316
vn 0.2408 -0.4080 0.8806
vn 0.7322 0.6596 0.1699
vn 0.8734 -0.4359 0.2170
vn 0.0000 0.7071 0.7071
vn 0.0000 -0.4017 0.9158
vn 0.5944 0.8042 -0.0000
vn 0.7764 0.6303 -0.0000
vn -0.6523 -0.4363 0.6198
vn -0.2408 -0.4080 0.8806
vn -0.1901 0.6546 0.7316
vn -0.5539 0.6457 0.5257
vn -0.7322 0.6596 0.1699
vn -0.8734 -0.4359 0.2170
vn -0.5944 0.8042 -0.0000
vn -0.7764 0.6303 -0.0000
vn 0.1049 -0.9203 -0.3769
vn 0.0000 -0.9316 -0.3635
vn 0.3389 -0.9408 -0.0000
vn 0.3476 -0.9367 -0.0419
vn -0.3389 -0.9408 -0.0000
vn -0.3476 -0.9367 -0.0419
vn -0.1049 -0.9203 -0.3769
vn 0.3476 -0.9367 0.0419
vn 0.0000 -0.9316 0.3635
vn 0.1049 -0.9203 0.3769
vn -0.3476 -0.9367 0.0419
vn -0.1049 -0.9203 0.3769
vn 0.0000 -1.0000 -0.0000
vn -0.2823 -0.9395 0.1943
vn 0.2823 -0.9395 0.1943
vn 0.2823 -0.9395 -0.1943
vn -0.2823 -0.9395 -0.1943
vn 0.0000 -1.0000 0.0000
vn -0.0000 -1.0000 0.0000
vn -0.0000 -1.0000 -0.0000
# 73 vertex normals

vt 0.5000 0.5000 0.0000
vt 0.7731 0.5000 0.0000
vt 0.7731 0.7525 0.0000
vt 0.5000 0.7525 0.0000
vt 0.5000 0.0000 0.0000
vt 0.7525 0.0000 0.0000
vt 0.7525 1.0000 0.0000
vt 0.5000 1.0000 0.0000
vt 0.0000 0.0000 0.0000
vt 0.2269 0.0000 0.0000
vt 0.2269 1.0000 0.0000
vt 0.0000 1.0000 0.0000
vt 1.0000 0.7525 0.0000
vt 1.0000 0.8362 0.0000
vt 0.7731 0.8362 0.0000
vt 0.8362 0.0000 0.0000
vt 0.8362 1.0000 0.0000
vt 1.0000 0.9224 0.0000
vt 0.7731 0.9224 0.0000
vt 0.9224 0.0000 0.0000
vt 0.9224 1.0000 0.0000
vt 1.0000 1.0000 0.0000
vt 0.7731 1.0000 0.0000
vt 1.0000 0.0000 0.0000
vt 1.0000 0.5000 0.0000
vt 0.6609 0.7869 0.0000
vt 0.5000 0.7664 0.0000
vt 0.5000 0.9224 0.0000
vt 0.5000 0.9080 0.0000
vt 0.6609 0.8870 0.0000
vt 0.7276 0.8362 0.0000
vt 0.5000 0.8372 0.0000
# 32 texture coords

o el_sotto_le_ante
g el_sotto_le_ante
usemtl wire_184155229
s 4
f 1/1/1 2/2/1 3/3/1 4/4/1 
s 16
f 5/5/2 6/6/2 7/7/3 8/8/3 
s 32
f 9/9/4 10/10/5 11/11/6 12/12/7 
s 4
f 7/13/3 13/14/3 14/15/1 3/3/1 
s 16
f 6/6/2 15/16/2 13/17/3 7/7/3 
s 4
f 13/14/3 16/18/8 17/19/1 14/15/1 
s 16
f 15/16/2 18/20/9 16/21/8 13/17/3 
s 4
f 16/18/8 12/22/7 11/23/6 17/19/1 
s 16
f 18/20/9 9/24/4 12/22/7 16/21/8 
s 4
f 2/2/1 8/25/3 7/13/3 3/3/1 
s 32
f 10/10/5 19/5/10 20/8/11 11/11/6 
s 4
f 21/26/12 22/27/13 4/4/1 3/3/1 
f 17/19/1 23/28/1 24/29/14 25/30/15 
f 11/23/6 20/8/11 23/28/1 17/19/1 
f 25/30/15 26/31/16 14/15/1 17/19/1 
f 3/3/1 14/15/1 26/31/16 21/26/12 
f 27/31/17 28/30/18 29/29/19 30/32/1 
f 30/32/1 31/27/20 32/26/21 27/31/17 
s off
f 22/27/13 21/26/12 32/26/21 31/27/20 
f 21/26/12 26/31/16 27/31/17 32/26/21 
f 26/31/16 25/30/15 28/30/18 27/31/17 
f 25/30/15 24/29/14 29/29/19 28/30/18 
s 4
f 1/1/1 4/4/1 33/3/1 34/2/1 
s 16
f 35/5/22 36/8/23 37/7/23 38/6/22 
s 32
f 39/9/24 40/12/25 41/11/26 42/10/27 
s 4
f 37/13/23 33/3/1 43/15/1 44/14/23 
s 16
f 38/6/22 37/7/23 44/17/23 45/16/22 
s 4
f 44/14/23 43/15/1 46/19/1 47/18/28 
s 16
f 45/16/22 44/17/23 47/21/28 48/20/29 
s 4
f 47/18/28 46/19/1 41/23/26 40/22/25 
s 16
f 48/20/29 47/21/28 40/22/25 39/24/24 
s 4
f 34/2/1 33/3/1 37/13/23 36/25/23 
s 32
f 42/10/27 41/11/26 20/8/11 19/5/10 
s 4
f 49/26/30 33/3/1 4/4/1 22/27/13 
f 46/19/1 50/30/31 24/29/14 23/28/1 
f 41/23/26 46/19/1 23/28/1 20/8/11 
f 50/30/31 46/19/1 43/15/1 51/31/32 
f 33/3/1 49/26/30 51/31/32 43/15/1 
f 52/31/33 30/32/1 29/29/19 53/30/34 
f 30/32/1 52/31/33 54/26/35 31/27/20 
s off
f 22/27/13 31/27/20 54/26/35 49/26/30 
f 49/26/30 54/26/35 52/31/33 51/31/32 
f 51/31/32 52/31/33 53/30/34 50/30/31 
f 50/30/31 53/30/34 29/29/19 24/29/14 
s 4
f 1/1/1 55/4/1 56/3/1 2/2/1 
s 16
f 5/5/2 8/8/3 57/7/3 58/6/2 
s 32
f 59/9/36 60/12/37 61/11/38 62/10/39 
s 4
f 57/13/3 56/3/1 63/15/1 64/14/3 
s 16
f 58/6/2 57/7/3 64/17/3 65/16/2 
s 4
f 64/14/3 63/15/1 66/19/1 67/18/40 
s 16
f 65/16/2 64/17/3 67/21/40 68/20/41 
s 4
f 67/18/40 66/19/1 61/23/38 60/22/37 
s 16
f 68/20/41 67/21/40 60/22/37 59/24/36 
s 4
f 2/2/1 56/3/1 57/13/3 8/25/3 
s 32
f 62/10/39 61/11/38 69/8/42 70/5/43 
s 4
f 71/26/15 56/3/1 55/4/1 72/27/14 
f 66/19/1 73/30/12 74/29/13 75/28/1 
f 61/23/38 66/19/1 75/28/1 69/8/42 
f 73/30/12 66/19/1 63/15/1 76/31/44 
f 56/3/1 71/26/15 76/31/44 63/15/1 
f 77/31/45 78/32/1 79/29/20 80/30/21 
f 78/32/1 77/31/45 81/26/18 82/27/19 
s off
f 72/27/14 82/27/19 81/26/18 71/26/15 
f 71/26/15 81/26/18 77/31/45 76/31/44 
f 76/31/44 77/31/45 80/30/21 73/30/12 
f 73/30/12 80/30/21 79/29/20 74/29/13 
s 4
f 1/1/1 34/2/1 83/3/1 55/4/1 
s 16
f 35/5/22 84/6/22 85/7/23 36/8/23 
s 32
f 86/9/46 87/10/47 88/11/48 89/12/49 
s 4
f 85/13/23 90/14/23 91/15/1 83/3/1 
s 16
f 84/6/22 92/16/22 90/17/23 85/7/23 
s 4
f 90/14/23 93/18/50 94/19/1 91/15/1 
s 16
f 92/16/22 95/20/51 93/21/50 90/17/23 
s 4
f 93/18/50 89/22/49 88/23/48 94/19/1 
s 16
f 95/20/51 86/24/46 89/22/49 93/21/50 
s 4
f 34/2/1 36/25/23 85/13/23 83/3/1 
s 32
f 87/10/47 70/5/43 69/8/42 88/11/48 
s 4
f 96/26/31 72/27/14 55/4/1 83/3/1 
f 94/19/1 75/28/1 74/29/13 97/30/30 
f 88/23/48 69/8/42 75/28/1 94/19/1 
f 97/30/30 98/31/52 91/15/1 94/19/1 
f 83/3/1 91/15/1 98/31/52 96/26/31 
f 99/31/53 100/30/35 79/29/20 78/32/1 
f 78/32/1 82/27/19 101/26/34 99/31/53 
s off
f 72/27/14 96/26/31 101/26/34 82/27/19 
f 96/26/31 98/31/52 99/31/53 101/26/34 
f 98/31/52 97/30/30 100/30/35 99/31/53 
f 97/30/30 74/29/13 79/29/20 100/30/35 
f 19/5/10 10/10/5 102/10/54 103/5/55 
f 6/6/2 5/5/2 104/5/56 105/6/56 
f 15/16/2 6/6/2 105/6/56 106/16/56 
f 18/20/9 15/16/2 106/16/56 107/20/57 
f 35/5/22 38/6/22 108/6/58 109/5/58 
f 38/6/22 45/16/22 110/16/58 108/6/58 
f 45/16/22 48/20/29 111/20/59 110/16/58 
f 42/10/27 19/5/10 103/5/55 112/10/60 
f 5/5/2 58/6/2 113/6/56 104/5/56 
f 58/6/2 65/16/2 114/16/56 113/6/56 
f 65/16/2 68/20/41 115/20/61 114/16/56 
f 62/10/39 70/5/43 116/5/62 117/10/63 
f 84/6/22 35/5/22 109/5/58 118/6/58 
f 92/16/22 84/6/22 118/6/58 119/16/58 
f 95/20/51 92/16/22 119/16/58 120/20/64 
f 70/5/43 87/10/47 121/10/65 116/5/62 
f 113/6/56 114/16/56 122/16/66 123/6/66 
s 1
f 120/4/64 124/27/67 86/4/46 95/13/51 
s 2
f 124/27/67 121/26/65 87/7/47 86/4/46 
s 1
f 117/8/63 125/30/68 59/16/36 62/17/39 
s 2
f 125/30/68 115/31/61 68/22/41 59/16/36 
s 1
f 107/22/57 126/22/69 9/8/4 18/6/9 
s 2
f 126/22/69 102/25/54 10/13/5 9/8/4 
s 1
f 127/8/70 111/28/59 48/32/29 39/26/24 
s 2
f 112/26/60 127/8/70 39/26/24 42/31/27 
s off
f 102/10/54 126/9/69 107/20/57 128/20/66 
f 105/6/56 104/5/56 129/5/66 130/6/66 
f 106/16/56 105/6/56 130/6/66 131/16/66 
f 107/20/57 106/16/56 131/16/66 128/20/66 
f 129/5/66 104/5/56 113/6/56 123/6/66 
f 115/20/61 125/24/68 117/10/63 132/20/71 
f 122/16/66 114/16/56 115/20/61 132/20/71 
f 121/10/65 124/9/67 120/20/64 133/20/72 
f 133/20/72 120/20/64 119/16/58 134/16/66 
f 134/16/66 119/16/58 118/6/58 135/6/66 
f 135/6/66 118/6/58 109/5/58 136/5/66 
f 136/5/66 109/5/58 108/6/58 137/6/66 
f 137/6/66 108/6/58 110/16/58 138/16/66 
f 138/16/66 110/16/58 111/20/59 139/20/71 
f 139/20/71 111/20/59 127/24/70 112/10/60 
f 112/10/60 103/5/55 140/20/72 139/20/71 
f 139/20/71 140/20/72 141/16/66 138/16/66 
f 138/16/66 141/16/66 142/6/66 137/6/66 
f 137/6/66 142/6/66 143/5/66 136/5/66 
f 136/5/66 143/5/66 144/6/66 135/6/66 
f 135/6/66 144/6/66 145/16/73 134/16/66 
f 134/16/66 145/16/73 146/20/71 133/20/72 
f 133/20/72 146/20/71 116/5/62 121/10/65 
f 117/10/63 116/5/62 146/20/71 132/20/71 
f 132/20/71 146/20/71 145/16/73 122/16/66 
f 122/16/66 145/16/73 144/6/66 123/6/66 
f 123/6/66 144/6/66 143/5/66 129/5/66 
f 129/5/66 143/5/66 142/6/66 130/6/66 
f 130/6/66 142/6/66 141/16/66 131/16/66 
f 131/16/66 141/16/66 140/20/72 128/20/66 
f 128/20/66 140/20/72 103/5/55 102/10/54 
# 144 polygons

