# 3ds Max Wavefront OBJ Exporter v0.97b - (c)2007 guruware
# File Created: 28.12.2017 10:57:32

mtllib asta.mtl

#
# object asta
#

v  -14.9606 -0.3379 0.0000
v  -14.9606 -0.2389 -0.2389
v  -14.9606 -0.2784 -0.2784
v  -14.9606 -0.3937 -0.0000
v  -14.9606 0.0000 -0.3379
v  -14.9606 0.0000 -0.3937
v  -14.9606 0.0000 0.3379
v  -14.9606 -0.2389 0.2389
v  -14.9606 -0.2784 0.2784
v  -14.9606 0.0000 0.3937
v  -14.9369 -0.2784 -0.2784
v  -14.9369 -0.3937 -0.0000
v  -14.9369 0.0000 -0.3937
v  -14.9369 -0.2784 0.2784
v  -14.9369 0.0000 0.3937
v  -4.9869 -0.3937 -0.0000
v  -4.9869 -0.2784 -0.2784
v  4.9869 -0.2784 -0.2784
v  4.9869 -0.3937 -0.0000
v  -4.9869 0.0000 -0.3937
v  4.9869 0.0000 -0.3937
v  -4.9869 0.0000 0.3937
v  -4.9869 -0.2784 0.2784
v  4.9869 -0.2784 0.2784
v  4.9869 0.0000 0.3937
v  14.8770 -0.2784 -0.2784
v  14.8770 -0.3937 -0.0000
v  14.8770 0.0000 -0.3937
v  14.8770 -0.2784 0.2784
v  14.8770 0.0000 0.3937
v  14.9606 -0.3937 -0.0000
v  14.9606 -0.2784 -0.2784
v  14.9606 -0.2398 -0.2398
v  14.9606 -0.3392 0.0000
v  14.9606 0.0000 -0.3937
v  14.9606 0.0000 -0.3392
v  14.9606 0.0000 0.3937
v  14.9606 -0.2784 0.2784
v  14.9606 -0.2398 0.2398
v  14.9606 0.0000 0.3392
v  -14.9369 0.0000 0.3379
v  -14.9369 -0.2389 0.2389
v  -14.9369 -0.2389 -0.2389
v  -14.9369 0.0000 -0.3379
v  -14.9369 -0.3379 0.0000
v  4.9871 0.0000 0.3387
v  14.8779 0.0000 0.3392
v  14.8779 -0.2398 0.2398
v  4.9871 -0.2395 0.2395
v  4.9871 -0.2395 -0.2395
v  14.8779 -0.2398 -0.2398
v  14.8779 0.0000 -0.3392
v  4.9871 0.0000 -0.3387
v  4.9871 -0.3387 0.0000
v  14.8779 -0.3392 0.0000
v  -4.9838 0.0000 0.3383
v  -4.9838 -0.2392 0.2392
v  -4.9838 -0.2392 -0.2392
v  -4.9838 0.0000 -0.3383
v  -4.9838 -0.3383 0.0000
v  -14.9606 0.6369 -0.0000
v  -14.9606 0.6927 -0.0000
v  -14.9606 0.5774 -0.2784
v  -14.9606 0.5379 -0.2389
v  -14.9606 0.2990 -0.3937
v  -14.9606 0.2990 -0.3379
v  -14.9606 0.2990 0.3379
v  -14.9606 0.2990 0.3937
v  -14.9606 0.5774 0.2784
v  -14.9606 0.5379 0.2389
v  -14.9369 0.6927 -0.0000
v  -14.9369 0.5774 -0.2784
v  -14.9369 0.2990 -0.3937
v  -14.9369 0.2990 0.3937
v  -14.9369 0.5774 0.2784
v  -4.9869 0.6927 -0.0000
v  4.9869 0.6927 -0.0000
v  4.9869 0.5774 -0.2784
v  -4.9869 0.5774 -0.2784
v  4.9869 0.2990 -0.3937
v  -4.9869 0.2990 -0.3937
v  -4.9869 0.2990 0.3937
v  4.9869 0.2990 0.3937
v  4.9869 0.5774 0.2784
v  -4.9869 0.5774 0.2784
v  14.8770 0.6927 -0.0000
v  14.8770 0.5774 -0.2784
v  14.8770 0.2990 -0.3937
v  14.8770 0.2990 0.3937
v  14.8770 0.5774 0.2784
v  14.9606 0.6927 -0.0000
v  14.9606 0.6382 -0.0000
v  14.9606 0.5388 -0.2398
v  14.9606 0.5774 -0.2784
v  14.9606 0.2990 -0.3392
v  14.9606 0.2990 -0.3937
v  14.9606 0.2990 0.3937
v  14.9606 0.2990 0.3392
v  14.9606 0.5388 0.2398
v  14.9606 0.5774 0.2784
v  -14.9369 0.5379 0.2389
v  -14.9369 0.2990 0.3379
v  -14.9369 0.2990 -0.3379
v  -14.9369 0.5379 -0.2389
v  -14.9369 0.6369 -0.0000
v  4.9871 0.2990 0.3387
v  4.9871 0.5385 0.2395
v  14.8779 0.5388 0.2398
v  14.8779 0.2990 0.3392
v  4.9871 0.5385 -0.2395
v  4.9871 0.2990 -0.3387
v  14.8779 0.2990 -0.3392
v  14.8779 0.5388 -0.2398
v  4.9871 0.6377 -0.0000
v  14.8779 0.6382 -0.0000
v  -4.9838 0.2990 0.3383
v  -4.9838 0.5382 0.2392
v  -4.9838 0.5382 -0.2392
v  -4.9838 0.2990 -0.3383
v  -4.9838 0.6373 -0.0000
# 120 vertices

vn -0.8042 0.5944 -0.0000
vn -0.8042 0.4203 0.4203
vn -0.6303 -0.5490 -0.5490
vn -0.6303 -0.7764 0.0000
vn -0.7538 0.1282 0.6445
vn -0.6657 -0.1456 -0.7319
vn -0.7538 0.1282 -0.6445
vn -0.8042 0.4203 -0.4203
vn -0.6303 -0.5490 0.5490
vn -0.6657 -0.1456 0.7319
vn -0.0000 -0.7071 -0.7071
vn -0.0000 -1.0000 0.0000
vn 0.0000 -0.1951 -0.9808
vn -0.0000 -0.7071 0.7071
vn 0.0000 -0.1951 0.9808
vn 0.0000 -1.0000 0.0000
vn 0.0000 -0.7071 -0.7071
vn 0.0000 -0.7071 0.7071
vn 0.6303 -0.7764 0.0000
vn 0.6303 -0.5490 -0.5490
vn 0.8042 0.4203 0.4203
vn 0.8042 0.5943 0.0000
vn 0.6657 -0.1456 -0.7319
vn 0.7538 0.1282 0.6445
vn 0.6657 -0.1456 0.7319
vn 0.6303 -0.5490 0.5490
vn 0.8042 0.4202 -0.4203
vn 0.7538 0.1282 -0.6445
vn 0.0000 0.1951 -0.9808
vn 0.0000 0.7071 -0.7071
vn 0.0000 0.7071 0.7071
vn 0.0000 0.1951 0.9808
vn 0.0000 1.0000 -0.0000
vn 0.0000 1.0000 0.0000
vn -0.8042 -0.5944 -0.0000
vn -0.6303 0.7764 0.0000
vn -0.6303 0.5490 -0.5490
vn -0.8042 -0.4203 0.4203
vn -0.6657 0.1456 -0.7319
vn -0.7538 -0.1282 0.6445
vn -0.7538 -0.1282 -0.6445
vn -0.6657 0.1456 0.7319
vn -0.6303 0.5490 0.5490
vn -0.8042 -0.4203 -0.4203
vn 0.6303 0.7764 0.0000
vn 0.8042 -0.5943 0.0000
vn 0.8042 -0.4203 0.4203
vn 0.6303 0.5490 -0.5490
vn 0.7538 -0.1282 0.6445
vn 0.6657 0.1456 -0.7319
vn 0.6657 0.1456 0.7319
vn 0.7538 -0.1282 -0.6445
vn 0.8042 -0.4202 -0.4203
vn 0.6303 0.5490 0.5490
vn 0.0000 -1.0000 -0.0000
# 55 vertex normals

vt 0.7500 0.0000 0.5000
vt 0.8750 0.0000 0.5000
vt 0.8750 0.0000 1.0000
vt 0.7500 0.0000 1.0000
vt -0.1250 0.0000 0.5000
vt 0.0000 0.0000 0.5000
vt 0.0000 0.0000 1.0000
vt -0.1250 0.0000 1.0000
vt 0.5000 0.0000 0.5000
vt 0.6250 0.0000 0.5000
vt 0.6250 0.0000 1.0000
vt 0.5000 0.0000 1.0000
vt 0.8750 0.0039 1.0000
vt 0.7500 0.0039 1.0000
vt 0.0000 0.0039 1.0000
vt -0.1250 0.0039 1.0000
vt 0.6250 0.0039 1.0000
vt 0.5000 0.0039 1.0000
vt 0.7500 0.3333 1.0000
vt 0.8750 0.3333 1.0000
vt 0.8750 0.6667 1.0000
vt 0.7500 0.6667 1.0000
vt -0.1250 0.3333 1.0000
vt 0.0000 0.3333 1.0000
vt 0.0000 0.6667 1.0000
vt -0.1250 0.6667 1.0000
vt 0.5000 0.3333 1.0000
vt 0.6250 0.3333 1.0000
vt 0.6250 0.6667 1.0000
vt 0.5000 0.6667 1.0000
vt 0.8750 0.9972 1.0000
vt 0.7500 0.9972 1.0000
vt 0.0000 0.9972 1.0000
vt -0.1250 0.9972 1.0000
vt 0.6250 0.9972 1.0000
vt 0.5000 0.9972 1.0000
vt 0.7500 1.0000 1.0000
vt 0.8750 1.0000 1.0000
vt 0.8750 1.0000 0.5000
vt 0.7500 1.0000 0.5000
vt -0.1250 1.0000 1.0000
vt 0.0000 1.0000 1.0000
vt 0.0000 1.0000 0.5000
vt -0.1250 1.0000 0.5000
vt 0.5000 1.0000 1.0000
vt 0.6250 1.0000 1.0000
vt 0.6250 1.0000 0.5000
vt 0.5000 1.0000 0.5000
vt 0.5000 0.0008 0.5000
vt 0.6250 0.0008 0.5000
vt -0.1250 0.0008 0.5000
vt 0.0000 0.0008 0.5000
vt 0.7500 0.0008 0.5000
vt 0.8750 0.0008 0.5000
vt 0.5000 0.6667 0.5000
vt 0.5000 0.9972 0.5000
vt 0.6250 0.9972 0.5000
vt 0.6250 0.6667 0.5000
vt -0.1250 0.6667 0.5000
vt -0.1250 0.9972 0.5000
vt 0.0000 0.9972 0.5000
vt 0.0000 0.6667 0.5000
vt 0.7500 0.6667 0.5000
vt 0.7500 0.9972 0.5000
vt 0.8750 0.9972 0.5000
vt 0.8750 0.6667 0.5000
vt 0.5000 0.3334 0.5000
vt 0.6250 0.3334 0.5000
vt -0.1250 0.3334 0.5000
vt 0.0000 0.3334 0.5000
vt 0.7500 0.3334 0.5000
vt 0.8750 0.3334 0.5000
# 72 texture coords

o asta
g asta
usemtl wire_227153153
s 1
f 1/1/1 2/2/2 3/3/3 4/4/4 
f 2/5/2 5/6/5 6/7/6 3/8/3 
f 7/9/7 8/10/8 9/11/9 10/12/10 
f 8/10/8 1/1/1 4/4/4 9/11/9 
s 8
f 4/4/4 3/3/3 11/13/11 12/14/12 
f 3/8/3 6/7/6 13/15/13 11/16/11 
f 10/12/10 9/11/9 14/17/14 15/18/15 
f 9/11/9 4/4/4 12/14/12 14/17/14 
f 16/19/16 17/20/17 18/21/17 19/22/16 
f 17/23/17 20/24/13 21/25/13 18/26/17 
f 22/27/15 23/28/18 24/29/18 25/30/15 
f 23/28/18 16/19/16 19/22/16 24/29/18 
f 19/22/16 18/21/17 26/31/17 27/32/16 
f 18/26/17 21/25/13 28/33/13 26/34/17 
f 25/30/15 24/29/18 29/35/18 30/36/15 
f 24/29/18 19/22/16 27/32/16 29/35/18 
s 1
f 31/37/19 32/38/20 33/39/21 34/40/22 
f 32/41/20 35/42/23 36/43/24 33/44/21 
f 37/45/25 38/46/26 39/47/27 40/48/28 
f 38/46/26 31/37/19 34/40/22 39/47/27 
s 8
f 11/13/11 17/20/17 16/19/16 12/14/12 
f 13/15/13 20/24/13 17/23/17 11/16/11 
f 14/17/14 23/28/18 22/27/15 15/18/15 
f 12/14/12 16/19/16 23/28/18 14/17/14 
f 26/31/17 32/38/20 31/37/19 27/32/16 
f 28/33/13 35/42/23 32/41/20 26/34/17 
f 29/35/18 38/46/26 37/45/25 30/36/15 
f 27/32/16 31/37/19 38/46/26 29/35/18 
s 2
f 8/10/8 7/9/7 41/49/29 42/50/30 
f 5/6/5 2/5/2 43/51/31 44/52/32 
s 4
f 2/2/2 1/1/1 45/53/33 43/54/31 
f 1/1/1 8/10/8 42/50/30 45/53/33 
s 2
f 46/55/29 47/56/29 48/57/30 49/58/30 
f 50/59/31 51/60/31 52/61/32 53/62/32 
s 4
f 54/63/34 55/64/34 51/65/31 50/66/31 
f 49/58/30 48/57/30 55/64/34 54/63/34 
s 2
f 56/67/29 46/55/29 49/58/30 57/68/30 
f 58/69/31 50/59/31 53/62/32 59/70/32 
s 4
f 60/71/33 54/63/34 50/66/31 58/72/31 
f 57/68/30 49/58/30 54/63/34 60/71/33 
s 2
f 47/56/29 40/48/28 39/47/27 48/57/30 
f 51/60/31 33/44/21 36/43/24 52/61/32 
s 4
f 55/64/34 34/40/22 33/39/21 51/65/31 
f 48/57/30 39/47/27 34/40/22 55/64/34 
s 2
f 41/49/29 56/67/29 57/68/30 42/50/30 
f 43/51/31 58/69/31 59/70/32 44/52/32 
s 4
f 45/53/33 60/71/33 58/72/31 43/54/31 
f 42/50/30 57/68/30 60/71/33 45/53/33 
s 1
f 61/1/35 62/4/36 63/3/37 64/2/38 
f 64/5/38 63/8/37 65/7/39 66/6/40 
f 67/9/41 68/12/42 69/11/43 70/10/44 
f 70/10/44 69/11/43 62/4/36 61/1/35 
s 8
f 62/4/36 71/14/34 72/13/30 63/3/37 
f 63/8/37 72/16/30 73/15/29 65/7/39 
f 68/12/42 74/18/32 75/17/31 69/11/43 
f 69/11/43 75/17/31 71/14/34 62/4/36 
f 76/19/33 77/22/33 78/21/30 79/20/30 
f 79/23/30 78/26/30 80/25/29 81/24/29 
f 82/27/32 83/30/32 84/29/31 85/28/31 
f 85/28/31 84/29/31 77/22/33 76/19/33 
f 77/22/33 86/32/33 87/31/30 78/21/30 
f 78/26/30 87/34/30 88/33/29 80/25/29 
f 83/30/32 89/36/32 90/35/31 84/29/31 
f 84/29/31 90/35/31 86/32/33 77/22/33 
s 1
f 91/37/45 92/40/46 93/39/47 94/38/48 
f 94/41/48 93/44/47 95/43/49 96/42/50 
f 97/45/51 98/48/52 99/47/53 100/46/54 
f 100/46/54 99/47/53 92/40/46 91/37/45 
s 8
f 72/13/30 71/14/34 76/19/33 79/20/30 
f 73/15/29 72/16/30 79/23/30 81/24/29 
f 75/17/31 74/18/32 82/27/32 85/28/31 
f 71/14/34 75/17/31 85/28/31 76/19/33 
f 87/31/30 86/32/33 91/37/45 94/38/48 
f 88/33/29 87/34/30 94/41/48 96/42/50 
f 90/35/31 89/36/32 97/45/51 100/46/54 
f 86/32/33 90/35/31 100/46/54 91/37/45 
s 2
f 70/10/44 101/50/17 102/49/13 67/9/41 
f 66/6/40 103/52/15 104/51/18 64/5/38 
s 4
f 64/2/38 104/54/18 105/53/55 61/1/35 
f 61/1/35 105/53/55 101/50/17 70/10/44 
s 2
f 106/55/13 107/58/17 108/57/17 109/56/13 
f 110/59/18 111/62/15 112/61/15 113/60/18 
s 4
f 114/63/16 110/66/18 113/65/18 115/64/16 
f 107/58/17 114/63/16 115/64/16 108/57/17 
s 2
f 116/67/13 117/68/17 107/58/17 106/55/13 
f 118/69/18 119/70/15 111/62/15 110/59/18 
s 4
f 120/71/55 118/72/18 110/66/18 114/63/16 
f 117/68/17 120/71/55 114/63/16 107/58/17 
s 2
f 109/56/13 108/57/17 99/47/53 98/48/52 
f 113/60/18 112/61/15 95/43/49 93/44/47 
s 4
f 115/64/16 113/65/18 93/39/47 92/40/46 
f 108/57/17 115/64/16 92/40/46 99/47/53 
s 2
f 102/49/13 101/50/17 117/68/17 116/67/13 
f 104/51/18 103/52/15 119/70/15 118/69/18 
s 4
f 105/53/55 104/54/18 118/72/18 120/71/55 
f 101/50/17 105/53/55 120/71/55 117/68/17 
s 1
f 67/9/41 7/9/7 10/12/10 68/12/42 
s 2
f 68/12/42 10/12/10 15/23/15 74/23/32 
f 74/23/32 15/23/15 22/27/15 82/27/32 
f 82/27/32 22/27/15 25/30/15 83/30/32 
f 83/30/32 25/30/15 30/44/15 89/44/32 
f 89/44/32 30/44/15 37/45/25 97/45/51 
s 1
f 97/45/51 37/45/25 40/48/28 98/48/52 
s 2
f 98/48/52 40/48/28 47/35/29 109/35/13 
f 109/35/13 47/35/29 46/15/29 106/15/13 
f 106/15/13 46/15/29 56/18/29 116/18/13 
f 116/18/13 56/18/29 41/59/29 102/59/13 
f 102/59/13 41/59/29 7/9/7 67/9/41 
s 1
f 65/7/39 6/7/6 5/6/5 66/6/40 
s 2
f 66/6/40 5/6/5 44/68/32 103/68/15 
s 1
f 103/68/15 44/68/32 59/32/32 119/32/15 
s 2
f 119/32/15 59/32/32 53/17/32 111/17/15 
s 1
f 111/17/15 53/17/32 52/63/32 112/63/15 
s 2
f 112/63/15 52/63/32 36/43/24 95/43/49 
s 1
f 95/43/49 36/43/24 35/42/23 96/42/50 
s 2
f 96/42/50 35/42/23 28/26/13 88/26/29 
s 1
f 88/26/29 28/26/13 21/25/13 80/25/29 
s 2
f 80/25/29 21/25/13 20/24/13 81/24/29 
s 1
f 81/24/29 20/24/13 13/5/13 73/5/29 
s 2
f 73/5/29 13/5/13 6/7/6 65/7/39 
# 120 polygons

